<svg width="196" height="90" viewBox="0 0 196 90" fill="none" xmlns="http://www.w3.org/2000/svg">
<path d="M174.575 40.4952C158.009 20.5382 161.981 0 161.981 0C134.855 26.1572 147.158 45.6297 147.158 45.6297C138.536 37.7826 143.768 24.2196 143.768 24.2196C126.717 46.4047 130.495 64.521 137.374 73.1432C137.083 68.6868 137.567 59.1927 142.799 52.5081C142.799 52.5081 142.605 64.3272 150.549 65.7804C150.549 65.7804 143.283 54.3488 159.268 39.042C159.268 39.042 156.943 51.0549 166.631 62.7772C169.537 66.3617 169.925 69.9462 168.956 73.24C176.609 65.3929 184.844 52.7987 174.575 40.4952Z" fill="white"/>
<path d="M22.1851 38.8482C24.1227 40.1076 25.5759 41.7545 26.4478 43.789V37.395H37.2013V72.465C37.2013 75.7588 36.5231 78.6652 35.2637 81.3778C34.0043 83.9935 32.0667 86.1248 29.451 87.6749C26.8353 89.2249 23.6383 90 19.7632 90C14.4349 90 10.2691 88.7405 7.07212 86.2217C3.87513 83.7029 1.93757 80.3121 1.3563 76.0495H12.0129C12.3036 77.5027 13.0786 78.5683 14.338 79.4402C15.5005 80.2152 17.1475 80.6028 19.085 80.6028C21.3132 80.6028 23.1539 79.9246 24.5102 78.6652C25.8665 77.4058 26.5447 75.3713 26.5447 72.465V66.2648C25.5759 68.3961 24.2196 70.043 22.282 71.2056C20.3445 72.465 18.0194 73.0462 15.3068 73.0462C12.4004 73.0462 9.78472 72.3681 7.55651 70.9149C5.23143 69.4617 3.48762 67.3304 2.13132 64.6178C0.678149 61.9052 0 58.7083 0 55.1238C0 51.4424 0.678149 48.2454 2.03445 45.5328C3.39074 42.8202 5.13455 40.6889 7.45963 39.2357C9.78471 37.7825 12.3036 37.1044 15.2099 37.1044C17.9225 37.0075 20.2476 37.5888 22.1851 38.8482ZM13.0786 48.7298C11.6254 50.2798 10.9473 52.3143 10.9473 55.0269C10.9473 57.7395 11.6254 59.8708 13.0786 61.324C14.5318 62.874 16.3724 63.5522 18.6975 63.5522C20.9257 63.5522 22.8633 62.7771 24.3165 61.2271C25.7696 59.677 26.4478 57.5457 26.4478 54.93C26.4478 52.3143 25.7696 50.183 24.3165 48.6329C22.8633 47.0828 21.0226 46.3078 18.6975 46.3078C16.3724 46.5016 14.5318 47.2766 13.0786 48.7298Z" fill="white"/>
<path d="M70.4305 39.2357C73.1431 40.6889 75.3713 42.8202 76.9214 45.5328C78.4714 48.2454 79.2465 51.4424 79.2465 55.1238C79.2465 58.8051 78.4714 62.0021 76.9214 64.7147C75.3713 67.4273 73.1431 69.5586 70.4305 71.0118C67.7179 72.465 64.5209 73.1431 61.0333 73.1431C57.5457 73.1431 54.4456 72.465 51.6361 71.0118C48.8266 69.5586 46.6953 67.4273 45.1453 64.7147C43.5952 62.0021 42.8202 58.8051 42.8202 55.1238C42.8202 51.4424 43.5952 48.2454 45.1453 45.5328C46.6953 42.8202 48.9235 40.6889 51.6361 39.2357C54.4456 37.7825 57.5457 37.1044 61.0333 37.1044C64.6178 37.0075 67.7179 37.7825 70.4305 39.2357ZM55.8988 48.6329C54.4456 50.0861 53.7674 52.3143 53.7674 55.1238C53.7674 57.9332 54.4456 60.0646 55.8988 61.5177C57.3519 62.9709 58.9989 63.7459 61.1302 63.7459C63.1646 63.7459 64.9085 62.9709 66.2648 61.5177C67.6211 60.0646 68.2992 57.9332 68.2992 55.1238C68.2992 52.3143 67.6211 50.183 66.2648 48.6329C64.9085 47.0829 63.1646 46.4047 61.1302 46.4047C58.9989 46.4047 57.2551 47.0829 55.8988 48.6329Z" fill="white"/>
<path d="M119.451 32.1636C123.132 35.1668 125.554 39.2357 126.717 44.2734H115.285C114.413 42.239 113.154 40.592 111.41 39.4295C109.666 38.267 107.632 37.6857 105.21 37.6857C102.013 37.6857 99.494 38.8482 97.5564 41.1733C95.6188 43.4984 94.65 46.5985 94.65 50.4736C94.65 54.3488 95.6188 57.4489 97.5564 59.6771C99.494 62.0022 102.013 63.1647 105.21 63.1647C107.632 63.1647 109.666 62.5834 111.41 61.4209C113.154 60.2583 114.413 58.6114 115.285 56.577H126.717C125.651 61.6146 123.229 65.6835 119.451 68.6868C115.77 71.69 111.022 73.24 105.307 73.24C100.947 73.24 97.1689 72.2713 93.875 70.3337C90.5812 68.3961 88.0623 65.7804 86.2216 62.2928C84.4778 58.8052 83.509 54.93 83.509 50.4736C83.509 46.0172 84.3809 42.1421 86.2216 38.6545C87.9654 35.1668 90.5812 32.5511 93.875 30.6136C97.1689 28.676 100.947 27.7072 105.307 27.7072C111.022 27.7072 115.77 29.1604 119.451 32.1636Z" fill="white"/>
<path d="M195.016 26.4478V73.1432H184.263V26.4478H195.016Z" fill="white"/>
</svg>
